<?xml version="1.0" standalone="no"?>
<!DOCTYPE svg PUBLIC "-//W3C//DTD SVG 20010904//EN"
 "http://www.w3.org/TR/2001/REC-SVG-20010904/DTD/svg10.dtd">
<svg version="1.0" xmlns="http://www.w3.org/2000/svg"
 width="500.000000pt" height="500.000000pt" viewBox="0 0 500.000000 500.000000"
 preserveAspectRatio="xMidYMid meet">

<g transform="translate(0.000000,500.000000) scale(0.100000,-0.100000)"
fill="#000000" stroke="none">
<path d="M2155 3031 c-214 -53 -375 -190 -437 -371 -31 -90 -30 -212 2 -295
48 -124 186 -214 340 -222 124 -6 276 -1 287 11 3 3 17 6 30 6 17 0 22 -4 17
-12 -4 -7 2 -5 13 5 11 9 34 17 51 17 17 0 34 4 37 10 3 5 19 7 34 4 16 -4 32
-1 35 5 4 6 20 11 36 11 16 0 32 4 35 10 3 5 19 7 34 4 16 -4 32 -1 35 5 4 6
18 11 30 11 13 0 29 7 36 15 9 10 17 12 30 5 13 -7 21 -5 31 6 8 9 21 13 35
10 12 -3 27 0 33 8 6 7 22 11 36 8 16 -3 25 0 25 8 0 8 8 10 24 6 14 -3 28 0
35 8 7 8 21 12 31 9 12 -3 20 0 20 7 0 7 8 9 19 5 11 -3 22 -1 26 5 7 12 35
14 35 2 0 -4 -55 -26 -122 -49 -107 -36 -180 -55 -398 -101 -25 -6 -37 -10
-26 -11 41 -2 278 53 405 95 132 43 265 106 308 146 62 58 48 134 -41 215 -66
60 -139 104 -253 153 -117 50 -133 54 -133 38 0 -24 14 -34 120 -85 207 -102
290 -177 290 -264 0 -38 -20 -69 -44 -69 -10 0 -11 8 -3 38 6 21 7 50 3 65
-15 62 -124 149 -279 223 -39 18 -73 32 -75 29 -2 -2 -6 -27 -8 -54 -2 -28 -9
-61 -16 -74 l-12 -22 -6 24 c-5 21 -7 22 -19 7 -7 -9 -19 -16 -25 -16 -6 0 1
10 17 21 16 13 27 30 27 45 l0 24 -50 -25 c-40 -20 -50 -30 -50 -50 0 -14 5
-25 11 -25 8 0 8 -4 1 -12 -11 -13 -12 -18 -12 -42 0 -7 -17 -18 -39 -24 -40
-10 -40 -10 -43 22 -2 17 1 61 6 99 5 37 6 70 3 73 -3 4 -22 3 -42 0 -35 -7
-35 -8 -35 -54 -1 -26 -2 -60 -4 -77 -3 -16 -5 -40 -5 -52 -1 -21 -6 -23 -56
-23 l-55 0 0 33 c1 29 5 56 25 145 7 28 5 32 -13 32 -16 0 -22 -9 -27 -39 -5
-29 -11 -38 -23 -36 -9 2 -19 4 -22 4 -2 1 6 8 18 17 26 18 31 57 6 47 -10 -4
-14 -13 -10 -26 4 -15 2 -17 -7 -8 -9 9 -9 16 0 29 9 16 6 20 -19 30 -26 9
-29 9 -24 -5 5 -13 4 -13 -8 -4 -11 9 -15 7 -19 -10 -5 -18 -2 -20 16 -15 21
5 21 4 3 -9 -18 -13 -17 -14 8 -21 14 -3 23 -10 20 -16 -3 -5 -12 -4 -21 4
-14 11 -15 10 -9 -12 6 -23 5 -24 -5 -4 -12 23 -53 47 -63 37 -12 -12 -6 -51
9 -57 10 -4 15 1 16 17 1 17 2 18 6 5 2 -10 9 -18 14 -18 6 0 8 -4 5 -9 -3 -5
1 -11 9 -15 8 -3 15 -1 15 5 0 6 7 4 15 -5 16 -16 41 -12 48 7 2 7 3 4 2 -5
-2 -10 2 -18 8 -18 9 0 9 -2 1 -8 -7 -4 -14 -18 -17 -32 -4 -25 -4 -25 -6 2
-1 20 -5 26 -17 21 -9 -3 -13 -12 -9 -22 5 -12 4 -13 -6 -4 -10 10 -9 16 2 29
12 16 12 17 -3 11 -10 -3 -20 -2 -23 3 -4 6 -11 10 -17 10 -7 0 -7 -4 1 -13 8
-10 7 -17 -1 -25 -21 -21 -37 -13 -40 20 -3 34 -28 52 -28 21 0 -30 -10 -34
-42 -17 -25 13 -29 20 -23 41 3 15 1 31 -7 41 -9 11 -9 14 -1 9 20 -13 29 42
10 61 -21 20 -28 13 -31 -30 -2 -19 -8 -43 -14 -53 -10 -18 -11 -18 -17 8 -4
15 -5 36 -2 47 7 28 -5 25 -35 -7 -60 -66 -75 -131 -44 -192 50 -97 225 -171
402 -171 150 0 375 72 451 145 54 53 56 81 7 135 -50 55 -39 69 21 28 56 -37
95 -89 95 -126 0 -84 -281 -208 -532 -234 -228 -24 -428 37 -505 154 -39 58
-43 139 -11 210 29 62 96 133 144 150 45 16 47 40 2 28 -52 -16 -106 -60 -148
-122 -60 -90 -76 -180 -46 -251 36 -86 182 -178 316 -198 228 -35 634 64 770
188 32 28 40 42 40 70 0 43 -50 98 -134 148 -33 19 -53 35 -44 35 9 0 50 -23
92 -51 78 -52 126 -112 126 -159 0 -69 -224 -184 -445 -230 -292 -60 -500 -47
-636 41 -166 108 -185 310 -42 453 41 41 152 106 182 106 6 0 11 5 11 10 0 35
-138 -24 -212 -89 -61 -54 -108 -148 -115 -230 -18 -192 120 -315 395 -351 51
-6 111 -9 135 -5 23 4 39 4 35 0 -10 -11 -148 -23 -142 -13 3 4 -14 7 -38 7
l-43 -2 35 -7 35 -7 -41 -2 c-56 -1 -185 33 -246 66 -175 96 -220 311 -101
491 58 87 150 150 271 186 43 12 52 13 52 1 0 -49 122 -116 263 -145 210 -43
411 28 375 131 -5 15 -19 35 -30 46 -21 18 -21 18 -9 -5 7 -13 11 -35 9 -50
-4 -34 -67 -68 -156 -83 -177 -31 -474 82 -412 156 14 17 -1 20 -17 4 -5 -5
-41 -17 -79 -25 -140 -29 -243 -102 -318 -227 -34 -57 -66 -166 -66 -225 0
-128 117 -257 300 -328 l35 -14 -53 4 c-116 11 -270 128 -306 232 -58 170 40
400 218 516 65 42 156 74 238 84 47 5 138 39 138 50 0 11 -143 1 -205 -15z
m262 -333 c-3 -8 -6 -5 -6 6 -1 11 2 17 5 13 3 -3 4 -12 1 -19z m10 -63 c0
-11 -4 -12 -14 -4 -7 6 -13 13 -13 15 0 2 6 4 13 4 8 0 14 -7 14 -15z m698
-25 c48 -33 90 -80 100 -111 20 -61 -63 -134 -175 -154 -19 -4 -44 -9 -55 -11
-11 -3 13 13 53 35 87 46 106 63 122 101 16 38 -8 88 -63 135 -50 43 -41 45
18 5z m-842 -95 c97 -47 174 -65 277 -65 136 0 232 34 316 112 46 42 55 38 29
-13 -23 -43 -89 -86 -169 -111 -102 -32 -292 -32 -391 -1 -123 39 -205 107
-205 172 0 23 3 22 36 -17 22 -26 62 -55 107 -77z m897 -169 c0 -3 -4 -8 -10
-11 -5 -3 -10 -1 -10 4 0 6 5 11 10 11 6 0 10 -2 10 -4z"/>
<path d="M2355 3025 c-35 -18 -40 -24 -40 -55 0 -30 5 -37 40 -57 88 -50 303
-71 382 -38 74 31 90 63 52 104 -25 27 -33 23 -20 -11 13 -34 2 -47 -54 -63
-66 -20 -177 -19 -258 4 -72 20 -107 43 -107 72 0 20 45 59 69 59 9 0 2 -8
-16 -20 -18 -11 -33 -23 -33 -27 1 -31 74 -72 140 -79 89 -10 130 -10 130 -2
0 5 8 8 18 7 24 -3 79 20 85 35 8 19 -16 60 -37 64 -14 3 -17 -1 -12 -16 9
-28 -26 -59 -75 -67 -54 -9 -144 12 -177 41 -26 23 -27 24 -8 39 11 8 27 15
35 14 11 0 12 -2 4 -6 -43 -17 17 -60 96 -70 62 -7 93 9 89 45 -5 42 -39 52
-158 50 -82 -2 -113 -6 -145 -23z m168 8 c-7 -2 -19 -2 -25 0 -7 3 -2 5 12 5
14 0 19 -2 13 -5z m33 -19 c-3 -9 -6 -20 -6 -25 0 -6 -9 -5 -22 2 -21 11 -21
12 -3 25 25 19 39 18 31 -2z m72 -22 c6 -20 -27 -13 -38 7 -5 11 -10 23 -10
27 0 10 43 -21 48 -34z"/>
<path d="M2224 2815 c-7 -28 3 -56 23 -62 20 -7 21 56 2 73 -17 15 -19 14 -25
-11z"/>
<path d="M2813 2765 c-37 -17 -42 -24 -43 -52 0 -18 2 -33 5 -33 3 0 24 9 46
20 44 23 56 42 43 68 -8 16 -12 16 -51 -3z"/>
<path d="M2327 2743 c-7 -33 9 -55 23 -33 14 23 12 60 -4 60 -7 0 -16 -12 -19
-27z"/>
<path d="M2340 2591 c0 -11 4 -21 9 -21 18 0 21 18 6 30 -13 10 -15 9 -15 -9z"/>
<path d="M2543 2163 c9 -2 23 -2 30 0 6 3 -1 5 -18 5 -16 0 -22 -2 -12 -5z"/>
<path d="M2463 2153 c9 -2 23 -2 30 0 6 3 -1 5 -18 5 -16 0 -22 -2 -12 -5z"/>
<path d="M918 2120 c-9 -6 -83 -11 -165 -13 -132 -2 -153 -4 -190 -25 -49 -26
-63 -47 -63 -95 0 -43 19 -59 62 -55 29 3 33 7 36 36 3 33 3 33 -33 26 -36 -6
-36 -6 -33 22 3 28 35 53 86 69 22 6 22 5 22 -89 0 -89 -1 -96 -20 -96 -11 0
-20 -4 -20 -10 0 -5 9 -10 20 -10 18 0 20 -7 20 -71 0 -65 2 -73 29 -100 26
-25 37 -29 86 -29 60 0 112 17 134 43 16 20 18 20 -43 2 -40 -12 -53 -13 -75
-2 -24 11 -26 18 -29 85 l-3 72 61 0 c33 0 60 4 60 10 0 6 -27 10 -60 10 l-60
0 0 95 0 95 35 0 c20 0 52 -7 71 -15 34 -14 36 -14 41 6 3 12 12 19 22 17 14
-3 17 -30 21 -208 l5 -205 37 -3 c49 -4 50 0 46 237 -3 207 -4 211 -58 211
-14 -1 -33 -5 -42 -10z"/>
<path d="M1741 2116 c-23 -13 -23 -13 -2 -19 20 -5 21 -10 21 -167 0 -172 7
-203 52 -234 13 -10 44 -16 74 -16 86 0 134 58 134 160 0 45 -32 115 -58 129
-26 14 -67 14 -92 1 -16 -9 -18 -4 -22 66 -4 80 -12 94 -58 93 -14 0 -36 -6
-49 -13z m165 -187 c16 -17 19 -37 19 -111 0 -78 -3 -91 -20 -104 -18 -13 -22
-13 -37 7 -14 17 -18 40 -18 113 0 113 16 139 56 95z"/>
<path d="M3240 2118 c-21 -9 -22 -12 -7 -15 15 -4 17 -20 17 -159 0 -217 23
-264 130 -264 85 0 131 54 131 155 0 112 -65 168 -153 130 -16 -6 -18 0 -18
67 0 44 -5 79 -12 86 -15 15 -54 15 -88 0z m164 -190 c24 -34 22 -189 -2 -211
-16 -15 -21 -15 -37 -3 -27 20 -36 194 -10 219 22 22 31 21 49 -5z"/>
<path d="M1242 2097 c-45 -26 -66 -78 -51 -130 5 -19 36 -65 69 -103 81 -93
96 -126 81 -175 -8 -28 -19 -41 -36 -45 -40 -10 -62 4 -77 49 -15 47 -41 59
-58 27 -27 -51 36 -110 117 -110 88 1 153 57 153 134 0 52 -15 81 -68 139 -78
84 -92 106 -92 148 0 68 64 78 76 12 8 -40 29 -53 52 -30 21 22 6 67 -28 84
-32 16 -108 16 -138 0z"/>
<path d="M2720 2083 c-22 -20 -33 -40 -37 -69 -6 -50 9 -83 75 -155 69 -77 82
-99 82 -139 0 -48 -24 -80 -60 -80 -32 0 -53 24 -64 73 -5 19 -12 27 -23 25
-46 -9 -40 -78 10 -108 67 -41 170 -17 214 49 43 64 26 122 -66 223 -87 95
-101 136 -60 174 26 23 47 11 63 -36 15 -47 50 -49 54 -4 5 47 -34 74 -104 74
-44 0 -59 -5 -84 -27z"/>
<path d="M1521 1966 c-27 -15 -40 -41 -33 -68 5 -22 31 -31 48 -17 19 15 18
29 -3 45 -16 11 -16 13 8 24 40 18 71 -2 67 -43 -3 -27 -11 -35 -63 -61 -33
-17 -66 -43 -74 -57 -16 -29 -10 -69 15 -93 23 -23 87 -21 109 4 l18 20 14
-20 c19 -27 74 -27 99 1 19 21 19 21 -1 18 -19 -4 -20 2 -22 91 -2 52 -5 105
-8 116 -10 45 -120 70 -174 40z m87 -183 c-3 -54 -5 -58 -28 -58 -22 0 -25 5
-28 37 -4 46 12 78 39 78 18 0 20 -6 17 -57z"/>
<path d="M2130 1973 c-56 -20 -98 -104 -85 -172 16 -82 59 -121 135 -121 100
0 161 118 116 225 -24 57 -105 90 -166 68z m78 -48 c15 -31 16 -154 2 -189
-14 -37 -57 -36 -67 2 -13 45 -9 178 6 196 20 24 46 19 59 -9z"/>
<path d="M2340 1968 c-20 -9 -22 -12 -8 -15 15 -4 18 -21 20 -136 l3 -132 40
0 40 0 3 106 3 106 34 18 c28 16 36 17 49 6 13 -11 17 -10 22 4 8 21 -7 49
-28 53 -9 2 -29 -8 -45 -22 l-30 -25 -11 24 c-13 28 -47 32 -92 13z"/>
<path d="M3030 1973 c-49 -19 -67 -73 -31 -93 15 -7 24 -6 36 6 15 15 15 18
-1 35 -20 22 -18 25 17 34 42 10 74 -35 51 -72 -4 -6 -32 -22 -64 -36 -31 -14
-61 -34 -67 -45 -16 -29 -14 -74 5 -100 19 -27 78 -30 113 -6 22 16 24 16 33
0 10 -18 59 -22 89 -6 22 12 26 32 4 24 -13 -5 -15 10 -15 99 0 96 -2 108 -23
133 -19 22 -33 28 -78 30 -30 2 -61 1 -69 -3z m80 -181 c0 -50 -12 -72 -41
-72 -31 0 -40 61 -13 98 8 12 24 22 35 22 16 0 19 -7 19 -48z"/>
<path d="M3610 1973 c-28 -10 -50 -36 -50 -58 0 -28 22 -47 44 -39 17 7 23 44
6 44 -5 0 -10 7 -10 15 0 24 48 30 70 10 39 -35 20 -69 -55 -99 -21 -9 -47
-24 -57 -33 -25 -22 -24 -94 0 -116 23 -21 81 -22 109 -2 18 13 22 13 33 0 18
-22 73 -19 95 5 17 18 17 20 2 14 -15 -5 -17 3 -17 83 0 108 -12 149 -51 168
-28 15 -90 19 -119 8z m80 -174 c0 -49 -15 -79 -39 -79 -21 0 -31 19 -31 56 0
39 18 64 45 64 23 0 25 -4 25 -41z"/>
<path d="M3827 1969 c-16 -10 -17 -12 -3 -22 12 -10 16 -38 18 -137 l3 -125
40 0 40 0 3 109 c3 112 10 136 43 136 45 0 51 -204 8 -263 -27 -38 -18 -44 28
-20 56 28 86 94 86 187 0 39 -6 83 -12 99 -20 52 -82 60 -129 17 -12 -11 -22
-16 -22 -11 0 34 -64 52 -103 30z"/>
<path d="M4215 1966 c-45 -20 -83 -70 -90 -120 -9 -58 21 -128 64 -150 42 -22
107 -20 147 5 36 22 48 47 15 29 -22 -11 -61 -13 -86 -4 -17 7 -45 54 -45 76
0 8 29 31 65 52 35 20 67 45 70 55 18 58 -63 91 -140 57z m65 -35 c17 -33 12
-48 -26 -70 -19 -12 -38 -21 -41 -21 -7 0 6 70 18 92 13 24 36 23 49 -1z"/>
<path d="M4390 1965 c-19 -11 -21 -14 -7 -15 15 0 17 -12 17 -118 0 -134 8
-156 55 -150 l30 3 5 104 c5 99 6 105 33 125 23 17 31 18 48 8 16 -10 20 -10
25 2 19 50 -27 71 -72 33 l-28 -25 -11 22 c-13 26 -60 32 -95 11z"/>
<path d="M4673 1960 c-49 -29 -66 -71 -61 -148 4 -59 7 -67 41 -98 31 -29 44
-34 86 -34 83 0 131 56 131 152 0 117 -104 185 -197 128z m97 -29 c5 -11 10
-56 10 -101 0 -89 -10 -120 -40 -120 -30 0 -40 31 -40 120 0 89 10 120 40 120
11 0 24 -9 30 -19z"/>
</g>
</svg>
